# xmcd
#
# Track frame offsets: 
#        150
#        12829
#        35839
#        48193
#        66908
#        93380
#        121412
#        145774
#        156141
#        180880
#        196990
#        205564
#        221916
#        240693
#
# Disc length: 3741 seconds
#
# Revision: 9
# Processed by: cddbd v1.5.2PL0 Copyright (c) Steve Scherf et al.
# Submitted via: ExactAudioCopyFreeDBPlugin 1.0
#
DISCID=bf0e9b0e
DTITLE=Paul Personne - Route 97 [CD01)
DYEAR=1997
DGENRE=Blues
TTITLE0=En route
TTITLE1=Encore à l'essai
TTITLE2=Que l'rock ait ton âme
TTITLE3=Attaqu'
TTITLE4=Doute chronique
TTITLE5=Où est l'Paradis
TTITLE6=Miss Terre
TTITLE7=Ça m'va
TTITLE8=Plus jamais m'laisser blueser
TTITLE9=Plus loin d'ici
TTITLE10=Flashes (Instrumental inédit)
TTITLE11=Quelqu'un appelle
TTITLE12=Célia (Instrumental)
TTITLE13=Rêve sidéral... d'un naïf idéal
EXTD=Enregistré en public à l'Olympia de Paris les 1, 2 et 3 avril 199
EXTD=7 YEAR: 1997 ID3G: 0
EXTT0=
EXTT1=
EXTT2=
EXTT3=
EXTT4=
EXTT5=
EXTT6=
EXTT7=
EXTT8=
EXTT9=
EXTT10=
EXTT11=
EXTT12=
EXTT13=
PLAYORDER=
